<svg xmlns="http://www.w3.org/2000/svg" width="596.692" height="99.858" viewBox="0 0 596.692 99.858">
  <defs>
    <style>
      .cls-1 {
        fill: #ed6a1c;
      }

      .cls-2 {
        fill: #fff;
        font-size: 20px;
        font-family: Gilroy-ExtraBold, Gilroy;
        font-weight: 800;
      }

      .cls-3 {
        fill: #3282c1;
      }

      .cls-4 {
        fill: #fbd800;
      }

      .cls-5 {
        fill: #cf649a;
      }

      .cls-6 {
        fill: #de4c36;
      }

      .cls-10, .cls-7, .cls-8, .cls-9 {
        stroke: none;
      }

      .cls-8 {
        fill: #df521d;
      }

      .cls-9 {
        fill: #266dbb;
      }

      .cls-10 {
        fill: #d9ba00;
      }
    </style>
  </defs>
  <g id="habilidades" transform="translate(-195.651 -2592)">
    <g id="Group_26" data-name="Group 26" transform="translate(0 3)">
      <g id="HTML" transform="translate(-254.535 1907.522)">
        <g id="Path_2" data-name="Path 2" class="cls-1" transform="translate(-3180 49)">
          <path class="cls-7" d="M 3673.285400390625 727.1340942382813 L 3642.701171875 718.2136840820313 L 3635.642333984375 637.4777221679688 L 3712.565185546875 637.4777221679688 L 3705.06884765625 718.175048828125 L 3673.285400390625 727.1340942382813 Z"/>
          <path class="cls-8" d="M 3641.0986328125 642.4777221679688 L 3647.38427734375 714.3712768554688 L 3673.30908203125 721.9326171875 L 3700.40771484375 714.2940673828125 L 3707.079345703125 642.4777221679688 L 3641.0986328125 642.4777221679688 M 3630.18603515625 632.4777221679688 L 3718.05126953125 632.4777221679688 L 3709.729736328125 722.0560913085938 L 3673.261962890625 732.3355712890625 L 3638.01806640625 722.0560913085938 L 3630.18603515625 632.4777221679688 Z"/>
        </g>
        <text id="HTML-2" data-name="HTML" class="cls-2" transform="translate(469 738)"><tspan x="0" y="0">HTML</tspan></text>
      </g>
      <g id="CSS" transform="translate(-254.535 1907.522)">
        <g id="Path_3" data-name="Path 3" class="cls-3" transform="translate(-3062.866 49)">
          <path class="cls-7" d="M 3673.285400390625 727.1340942382813 L 3642.701171875 718.2136840820313 L 3635.642333984375 637.4777221679688 L 3712.565185546875 637.4777221679688 L 3705.06884765625 718.175048828125 L 3673.285400390625 727.1340942382813 Z"/>
          <path class="cls-9" d="M 3641.0986328125 642.4777221679688 L 3647.38427734375 714.3712768554688 L 3673.30908203125 721.9326171875 L 3700.40771484375 714.2940673828125 L 3707.079345703125 642.4777221679688 L 3641.0986328125 642.4777221679688 M 3630.18603515625 632.4777221679688 L 3718.05126953125 632.4777221679688 L 3709.729736328125 722.0560913085938 L 3673.261962890625 732.3355712890625 L 3638.01806640625 722.0560913085938 L 3630.18603515625 632.4777221679688 Z"/>
        </g>
        <text id="CSS-2" data-name="CSS" class="cls-2" transform="translate(593 738)"><tspan x="0" y="0">CSS</tspan></text>
      </g>
      <g id="JS" transform="translate(-254.535 1907.522)">
        <g id="Path_4" data-name="Path 4" class="cls-4" transform="translate(-2945.732 49)">
          <path class="cls-7" d="M 3673.285400390625 727.1340942382813 L 3642.701171875 718.2136840820313 L 3635.642333984375 637.4777221679688 L 3712.565185546875 637.4777221679688 L 3705.06884765625 718.175048828125 L 3673.285400390625 727.1340942382813 Z"/>
          <path class="cls-10" d="M 3641.0986328125 642.4777221679688 L 3647.38427734375 714.3712768554688 L 3673.30908203125 721.9326171875 L 3700.40771484375 714.2940673828125 L 3707.079345703125 642.4777221679688 L 3641.0986328125 642.4777221679688 M 3630.18603515625 632.4777221679688 L 3718.05126953125 632.4777221679688 L 3709.729736328125 722.0560913085938 L 3673.261962890625 732.3355712890625 L 3638.01806640625 722.0560913085938 L 3630.18603515625 632.4777221679688 Z"/>
        </g>
        <text id="JS-2" data-name="JS" class="cls-2" transform="translate(717 738)"><tspan x="0" y="0">JS</tspan></text>
      </g>
    </g>
    <path id="sass-1" class="cls-5" d="M103.237,51.917A24.734,24.734,0,0,0,92.356,54.45c-1.126-2.228-2.251-4.175-2.439-5.628a15.567,15.567,0,0,1-.211-4.737,37.96,37.96,0,0,1,1.43-5.113c-.024-.211-.258-1.243-2.673-1.266s-4.5.469-4.737,1.1A26.933,26.933,0,0,0,82.717,42.4c-.422,2.2-4.831,10.014-7.34,14.118a14.4,14.4,0,0,1-1.665-4.128,15.565,15.565,0,0,1-.211-4.737,37.978,37.978,0,0,1,1.431-5.112c-.023-.211-.258-1.243-2.673-1.266s-4.5.469-4.737,1.1-.492,2.134-1.008,3.588c-.493,1.454-6.355,14.493-7.88,17.893-.774,1.735-1.454,3.119-1.946,4.057s-.023.07-.07.164c-.422.8-.657,1.243-.657,1.243v.024c-.328.586-.68,1.149-.844,1.149a7.821,7.821,0,0,1,.047-3.728c.868-4.526,2.978-11.585,2.955-11.843,0-.117.4-1.36-1.36-1.993a2.137,2.137,0,0,0-2.462.422c-.141,0-.258.375-.258.375s1.9-7.95-3.635-7.95c-3.471,0-8.255,3.776-10.623,7.223-1.5.821-4.69,2.556-8.067,4.409-1.29.7-2.627,1.454-3.893,2.134l-.258-.282C20.853,52.1,8.448,47.039,8.964,37.424c.188-3.494,1.407-12.71,23.827-23.873C51.152,4.405,65.856,6.915,68.412,12.5c3.635,7.973-7.856,22.794-26.945,24.928-7.27.821-11.093-1.993-12.054-3.049-1.008-1.1-1.149-1.149-1.524-.938-.61.328-.235,1.313,0,1.9.563,1.477,2.908,4.1,6.895,5.417,3.494,1.149,12.03,1.782,22.349-2.2,11.561-4.479,20.59-16.908,17.94-27.3C72.375.677,54.834-2.794,38.254,3.092,28.381,6.61,17.687,12.1,10,19.3.849,27.833-.6,35.29.005,38.386,2.14,49.431,17.359,56.631,23.456,61.954c-.3.164-.586.328-.844.469-3.049,1.5-14.657,7.575-17.565,14-3.283,7.27.516,12.5,3.049,13.2,7.833,2.181,15.853-1.735,20.191-8.184,4.315-6.449,3.8-14.821,1.806-18.644l-.071-.141,2.392-1.407c1.548-.915,3.072-1.759,4.409-2.486a29.2,29.2,0,0,0-1.571,7.973c-.328,4.128,1.36,9.474,3.588,11.585a3.97,3.97,0,0,0,2.884.938c2.58,0,3.752-2.134,5.042-4.69,1.595-3.119,3-6.73,3-6.73s-1.759,9.779,3.049,9.779c1.759,0,3.518-2.275,4.315-3.447V74.2s.047-.07.141-.235q.148-.218.281-.445v-.047c.7-1.219,2.275-4.01,4.62-8.63,3.025-5.957,5.933-13.414,5.933-13.414a42.8,42.8,0,0,0,1.149,4.831,46.229,46.229,0,0,0,2.509,5.628c-.7.985-1.126,1.548-1.126,1.548l.023.023c-.563.75-1.2,1.548-1.852,2.345-2.392,2.861-5.253,6.121-5.628,7.059a1.932,1.932,0,0,0,.516,2.58,4.694,4.694,0,0,0,2.955.469A13.163,13.163,0,0,0,71.062,74.9a15.269,15.269,0,0,0,3.8-1.993A8.458,8.458,0,0,0,78.5,65.426a15.041,15.041,0,0,0-1.384-5.276c.211-.3.422-.61.633-.938a98.993,98.993,0,0,0,6.566-11.374,42.8,42.8,0,0,0,1.149,4.831A33.869,33.869,0,0,0,87.6,57.5a20.848,20.848,0,0,0-6.4,8.278c-1.384,3.987-.3,5.792,1.735,6.215a6.242,6.242,0,0,0,3.213-.657A14.558,14.558,0,0,0,90.2,69.248c2.345-1.735,4.6-4.151,4.479-7.411a14.206,14.206,0,0,0-1.008-4.385A22.847,22.847,0,0,1,105.3,56.116c10.436,1.219,12.5,7.739,12.1,10.459a7.005,7.005,0,0,1-3.307,4.69c-.727.446-.962.61-.891.938.094.493.422.469,1.055.375a8.118,8.118,0,0,0,5.675-7.246c.281-6.45-5.839-13.485-16.7-13.415ZM22.753,79.05c-3.447,3.776-8.3,5.206-10.365,3.987-2.228-1.29-1.36-6.848,2.884-10.858a55.179,55.179,0,0,1,8.138-6.074c.492-.3,1.243-.75,2.134-1.29a2.5,2.5,0,0,1,.235-.141c.164-.094.352-.211.539-.328a14.959,14.959,0,0,1-3.565,14.7Zm25.21-17.143c-1.2,2.931-3.729,10.459-5.253,10.037-1.313-.352-2.111-6.05-.258-11.679a26.072,26.072,0,0,1,4.1-7.528c1.9-2.111,3.963-2.814,4.479-1.946C51.645,51.917,48.713,60.078,47.963,61.907Zm20.8,9.943c-.516.258-.985.446-1.2.305-.164-.094.211-.446.211-.446s2.6-2.791,3.635-4.08c.586-.75,1.29-1.618,2.04-2.6v.281c0,3.377-3.236,5.628-4.69,6.543ZM84.8,68.192c-.375-.281-.328-1.149.938-3.869a14.5,14.5,0,0,1,3.565-4.6,5.8,5.8,0,0,1,.352,2.017C89.635,65.964,86.633,67.536,84.8,68.192Z" transform="translate(672.4 2596.759)"/>
    <path id="git-icon" class="cls-6" d="M97.976,45.481l-43.6-43.6a6.431,6.431,0,0,0-9.094,0l-9.054,9.054L47.714,22.422a7.637,7.637,0,0,1,9.672,9.736L68.454,43.227a7.643,7.643,0,1,1-4.583,4.315L53.548,37.219V64.383a7.731,7.731,0,0,1,2.024,1.447,7.646,7.646,0,1,1-8.316-1.67V36.744a7.559,7.559,0,0,1-2.5-1.67A7.65,7.65,0,0,1,43.1,26.708L31.78,15.386,1.884,45.279a6.433,6.433,0,0,0,0,9.1l43.6,43.6a6.432,6.432,0,0,0,9.1,0l43.4-43.4a6.435,6.435,0,0,0,0-9.1" transform="translate(545.105 2592)"/>
  </g>
</svg>
